# xmcd CD database file
#
# Track frame offsets:
#	150
#	16098
#	32419
#	47681
#	62378
#	78297
#	99571
#	117726
#	141443
#	155259
#	170152
#	196023
#	231631
#
# Disc length: 3329 seconds
#
# Revision: 1
# Processed by: cddbd v1.5.2PL0 Copyright (c) Steve Scherf et al.
# Submitted via: CDex 1.50
#
DISCID=a60cff0d
DTITLE=Pohlmann - König der Straßen
DYEAR=2010
DGENRE=Deutsch Rock
TTITLE0=König der Straßen
TTITLE1=Die Welt zerbricht
TTITLE2=Am Morgen danach
TTITLE3=Wenn sie lächelt
TTITLE4=Für Dich
TTITLE5=Gut so
TTITLE6=Unten im Meer
TTITLE7=Wohin
TTITLE8=Selbstverliebt
TTITLE9=Wenn Du nichts mehr von mir hörst
TTITLE10=Heile Welt Kriege
TTITLE11=Ich schließe meine Augen
TTITLE12=Ich will, dass Du mitgehst
EXTD=YEAR: 2010
EXTT0=
EXTT1=
EXTT2=
EXTT3=
EXTT4=
EXTT5=
EXTT6=
EXTT7=
EXTT8=
EXTT9=
EXTT10=
EXTT11=
EXTT12=
PLAYORDER=
